<svg aria-hidden="true" style="position: absolute; width: 0; height: 0; overflow: hidden;" version="1.1" xmlns="http://www.w3.org/2000/svg" xmlns:xlink="http://www.w3.org/1999/xlink">
  <defs>
    <symbol id="home" viewBox="0 0 24 24">
      <path d="M24 13.839l-12-9.315-12 9.315v-3.798l12-9.315 12 9.315zM21 13.5v9h-6v-6h-6v6h-6v-9l9-6.75z"></path>
    </symbol>
    <symbol id="newspaper" viewBox="0 0 24 24">
      <path d="M21 6v-3h-21v16.5c0 0.828 0.672 1.5 1.5 1.5h20.25c1.243 0 2.25-1.007 2.25-2.25v-12.75h-3zM19.5 19.5h-18v-15h18v15zM3 7.5h15v1.5h-15zM12 10.5h6v1.5h-6zM12 13.5h6v1.5h-6zM12 16.5h4.5v1.5h-4.5zM3 10.5h7.5v7.5h-7.5z"></path>
    </symbol>
    <symbol id="image" viewBox="0 0 24 24">
      <path d="M22.497 3c0.001 0.001 0.002 0.002 0.003 0.003v17.995c-0.001 0.001-0.002 0.002-0.003 0.003h-20.995c-0.001-0.001-0.002-0.002-0.003-0.003v-17.995c0.001-0.001 0.002-0.002 0.003-0.003h20.995zM22.5 1.5h-21c-0.825 0-1.5 0.675-1.5 1.5v18c0 0.825 0.675 1.5 1.5 1.5h21c0.825 0 1.5-0.675 1.5-1.5v-18c0-0.825-0.675-1.5-1.5-1.5v0z"></path>
      <path d="M19.5 6.75c0 1.243-1.007 2.25-2.25 2.25s-2.25-1.007-2.25-2.25 1.007-2.25 2.25-2.25 2.25 1.007 2.25 2.25z"></path>
      <path d="M21 19.5h-18v-3l5.25-9 6 7.5h1.5l5.25-4.5z"></path>
    </symbol>
    <symbol id="camera" viewBox="0 0 24 24">
      <path d="M7.125 14.25c0 2.692 2.183 4.875 4.875 4.875s4.875-2.183 4.875-4.875-2.183-4.875-4.875-4.875-4.875 2.183-4.875 4.875zM22.5 6h-5.25c-0.375-1.5-0.75-3-2.25-3h-6c-1.5 0-1.875 1.5-2.25 3h-5.25c-0.825 0-1.5 0.675-1.5 1.5v13.5c0 0.825 0.675 1.5 1.5 1.5h21c0.825 0 1.5-0.675 1.5-1.5v-13.5c0-0.825-0.675-1.5-1.5-1.5zM12 20.906c-3.676 0-6.656-2.98-6.656-6.656s2.98-6.656 6.656-6.656c3.676 0 6.656 2.98 6.656 6.656s-2.98 6.656-6.656 6.656zM22.5 10.5h-3v-1.5h3v1.5z"></path>
    </symbol>
    <symbol id="music" viewBox="0 0 24 24">
      <path d="M22.5 0h1.5v17.25c0 2.071-2.351 3.75-5.25 3.75s-5.25-1.679-5.25-3.75c0-2.071 2.351-3.75 5.25-3.75 1.469 0 2.797 0.431 3.75 1.126v-8.626l-12 2.667v11.583c0 2.071-2.351 3.75-5.25 3.75s-5.25-1.679-5.25-3.75c0-2.071 2.35-3.75 5.25-3.75 1.469 0 2.797 0.431 3.75 1.126v-14.626l13.5-3z"></path>
    </symbol>
    <symbol id="play" viewBox="0 0 24 24">
      <path d="M22.997 3.753c-3.366-0.484-7.086-0.753-10.997-0.753s-7.63 0.269-10.997 0.753c-0.645 2.525-1.003 5.314-1.003 8.247s0.358 5.723 1.003 8.247c3.367 0.484 7.086 0.753 10.997 0.753s7.63-0.269 10.997-0.753c0.645-2.525 1.003-5.314 1.003-8.247s-0.358-5.723-1.003-8.247zM9 16.5v-9l7.5 4.5-7.5 4.5z"></path>
    </symbol>
    <symbol id="books" viewBox="0 0 27 24">
      <path d="M5.25 3h-4.5c-0.413 0-0.75 0.338-0.75 0.75v16.5c0 0.413 0.338 0.75 0.75 0.75h4.5c0.412 0 0.75-0.337 0.75-0.75v-16.5c0-0.412-0.338-0.75-0.75-0.75zM4.5 7.5h-3v-1.5h3v1.5z"></path>
      <path d="M12.75 3h-4.5c-0.413 0-0.75 0.338-0.75 0.75v16.5c0 0.413 0.337 0.75 0.75 0.75h4.5c0.413 0 0.75-0.337 0.75-0.75v-16.5c0-0.412-0.337-0.75-0.75-0.75zM12 7.5h-3v-1.5h3v1.5z"></path>
      <path d="M17.932 4.16l-4.019 2.025c-0.368 0.186-0.518 0.639-0.332 1.007l6.749 13.396c0.186 0.368 0.639 0.518 1.007 0.332l4.019-2.025c0.368-0.186 0.518-0.639 0.332-1.007l-6.749-13.396c-0.186-0.368-0.639-0.518-1.007-0.332z"></path>
    </symbol>
    <symbol id="credit-card" viewBox="0 0 24 24">
      <path d="M21.75 3h-19.5c-1.237 0-2.25 1.012-2.25 2.25v13.5c0 1.237 1.013 2.25 2.25 2.25h19.5c1.237 0 2.25-1.013 2.25-2.25v-13.5c0-1.238-1.013-2.25-2.25-2.25zM2.25 4.5h19.5c0.407 0 0.75 0.343 0.75 0.75v2.25h-21v-2.25c0-0.407 0.343-0.75 0.75-0.75zM21.75 19.5h-19.5c-0.407 0-0.75-0.343-0.75-0.75v-6.75h21v6.75c0 0.407-0.343 0.75-0.75 0.75zM3 15h1.5v3h-1.5zM6 15h1.5v3h-1.5zM9 15h1.5v3h-1.5z"></path>
    </symbol>
    <symbol id="phone" viewBox="0 0 24 24">
      <path d="M16.5 15c-1.5 1.5-1.5 3-3 3s-3-1.5-4.5-3-3-3-3-4.5 1.5-1.5 3-3-3-6-4.5-6-4.5 4.5-4.5 4.5c0 3 3.082 9.082 6 12s9 6 12 6c0 0 4.5-3 4.5-4.5s-4.5-6-6-4.5z"></path>
    </symbol>
    <symbol id="location" viewBox="0 0 24 24">
      <path d="M12 0c-4.142 0-7.5 3.358-7.5 7.5 0 7.5 7.5 16.5 7.5 16.5s7.5-9 7.5-16.5c0-4.142-3.358-7.5-7.5-7.5zM12 12c-2.485 0-4.5-2.015-4.5-4.5s2.015-4.5 4.5-4.5 4.5 2.015 4.5 4.5-2.015 4.5-4.5 4.5z"></path>
    </symbol>
    <symbol id="calendar" viewBox="0 0 24 24">
      <path d="M7.5 9h3v3h-3zM12 9h3v3h-3zM16.5 9h3v3h-3zM3 18h3v3h-3zM7.5 18h3v3h-3zM12 18h3v3h-3zM7.5 13.5h3v3h-3zM12 13.5h3v3h-3zM16.5 13.5h3v3h-3zM3 13.5h3v3h-3zM19.5 0v1.5h-3v-1.5h-10.5v1.5h-3v-1.5h-3v24h22.5v-24h-3zM21 22.5h-19.5v-16.5h19.5v16.5z"></path>
    </symbol>
    <symbol id="box-add" viewBox="0 0 24 24">
      <path d="M19.5 1.5h-15l-4.5 4.5v15.75c0 0.414 0.336 0.75 0.75 0.75h22.5c0.414 0 0.75-0.336 0.75-0.75v-15.75l-4.5-4.5zM12 19.5l-7.5-6h4.5v-4.5h6v4.5h4.5l-7.5 6zM3.621 4.5l1.5-1.5h13.757l1.5 1.5h-16.757z"></path>
    </symbol>
    <symbol id="users" viewBox="0 0 27 24">
      <path d="M18 18.061v-1.237c1.652-0.931 3-3.252 3-5.574 0-3.728 0-6.75-4.5-6.75s-4.5 3.022-4.5 6.75c0 2.322 1.348 4.643 3 5.574v1.237c-5.088 0.416-9 2.916-9 5.939h21c0-3.023-3.912-5.523-9-5.939z"></path>
      <path d="M7.669 18.64c1.296-0.847 2.908-1.491 4.683-1.885-0.353-0.417-0.673-0.882-0.949-1.383-0.713-1.295-1.090-2.72-1.090-4.123 0-2.017 0-3.921 0.717-5.479 0.696-1.512 1.948-2.449 3.732-2.8-0.396-1.792-1.452-2.971-4.261-2.971-4.5 0-4.5 3.022-4.5 6.75 0 2.322 1.348 4.643 3 5.574v1.237c-5.088 0.416-9 2.916-9 5.939h6.539c0.34-0.303 0.717-0.59 1.129-0.86z"></path>
    </symbol>
    <symbol id="equalizer" viewBox="0 0 24 24">
      <path d="M10.5 3v-0.375c0-0.619-0.506-1.125-1.125-1.125h-3.75c-0.619 0-1.125 0.506-1.125 1.125v0.375h-4.5v3h4.5v0.375c0 0.619 0.506 1.125 1.125 1.125h3.75c0.619 0 1.125-0.506 1.125-1.125v-0.375h13.5v-3h-13.5zM6 6v-3h3v3h-3zM19.5 10.125c0-0.619-0.506-1.125-1.125-1.125h-3.75c-0.619 0-1.125 0.506-1.125 1.125v0.375h-13.5v3h13.5v0.375c0 0.619 0.506 1.125 1.125 1.125h3.75c0.619 0 1.125-0.506 1.125-1.125v-0.375h4.5v-3h-4.5v-0.375zM15 13.5v-3h3v3h-3zM10.5 17.625c0-0.619-0.506-1.125-1.125-1.125h-3.75c-0.619 0-1.125 0.506-1.125 1.125v0.375h-4.5v3h4.5v0.375c0 0.619 0.506 1.125 1.125 1.125h3.75c0.619 0 1.125-0.506 1.125-1.125v-0.375h13.5v-3h-13.5v-0.375zM6 21v-3h3v3h-3z"></path>
    </symbol>
    <symbol id="cog" viewBox="0 0 24 24">
      <path d="M21.886 14.303c-1.259-2.181-0.502-4.976 1.691-6.246l-2.358-4.085c-0.674 0.395-1.457 0.622-2.293 0.622-2.52 0-4.563-2.057-4.563-4.594h-4.717c0.006 0.783-0.189 1.577-0.608 2.303-1.259 2.181-4.058 2.923-6.255 1.658l-2.358 4.085c0.679 0.386 1.267 0.951 1.685 1.675 1.257 2.178 0.504 4.967-1.681 6.24l2.358 4.085c0.671-0.391 1.451-0.615 2.283-0.615 2.512 0 4.55 2.044 4.563 4.569h4.717c-0.002-0.775 0.194-1.56 0.609-2.279 1.257-2.177 4.049-2.92 6.244-1.664l2.358-4.085c-0.675-0.386-1.258-0.949-1.674-1.669zM12 16.859c-2.684 0-4.859-2.176-4.859-4.859s2.176-4.859 4.859-4.859c2.684 0 4.859 2.176 4.859 4.859s-2.176 4.859-4.859 4.859z"></path>
    </symbol>
    <symbol id="pie-chart" viewBox="0 0 24 24">
      <path d="M10.5 13.5v-10.5c-5.799 0-10.5 4.701-10.5 10.5s4.701 10.5 10.5 10.5 10.5-4.701 10.5-10.5c0-1.688-0.399-3.283-1.107-4.696l-9.393 4.696zM21.393 5.804c-1.724-3.441-5.282-5.804-9.393-5.804v10.5l9.393-4.696z"></path>
    </symbol>
    <symbol id="stats-dots" viewBox="0 0 24 24">
      <path d="M3 21h21v3h-24v-24h3zM6.75 19.5c-1.243 0-2.25-1.007-2.25-2.25s1.007-2.25 2.25-2.25c0.066 0 0.132 0.003 0.197 0.009l2.419-4.031c-0.231-0.353-0.365-0.775-0.365-1.228 0-1.243 1.007-2.25 2.25-2.25s2.25 1.007 2.25 2.25c0 0.453-0.135 0.875-0.365 1.228l2.419 4.031c0.065-0.006 0.13-0.009 0.197-0.009 0.050 0 0.1 0.002 0.149 0.005l3.993-6.987c-0.247-0.361-0.392-0.798-0.392-1.268 0-1.243 1.007-2.25 2.25-2.25s2.25 1.007 2.25 2.25c0 1.243-1.007 2.25-2.25 2.25-0.050 0-0.1-0.002-0.149-0.005l-3.993 6.987c0.247 0.361 0.392 0.798 0.392 1.268 0 1.243-1.007 2.25-2.25 2.25s-2.25-1.007-2.25-2.25c0-0.453 0.135-0.875 0.365-1.228l-2.419-4.031c-0.065 0.006-0.13 0.009-0.197 0.009s-0.132-0.003-0.197-0.009l-2.419 4.031c0.231 0.353 0.365 0.775 0.365 1.228 0 1.243-1.007 2.25-2.25 2.25z"></path>
    </symbol>
    <symbol id="trophy" viewBox="0 0 24 24">
      <path d="M19.5 4.5v-3h-15v3h-4.5v3c0 2.485 2.015 4.5 4.5 4.5 0.471 0 0.924-0.072 1.35-0.206 1.082 1.547 2.733 2.667 4.65 3.056v4.65h-1.5c-1.657 0-3 1.343-3 3h12c0-1.657-1.343-3-3-3h-1.5v-4.65c1.917-0.389 3.567-1.509 4.65-3.056 0.426 0.134 0.88 0.206 1.35 0.206 2.485 0 4.5-2.015 4.5-4.5v-3h-4.5zM4.5 10.219c-1.499 0-2.719-1.22-2.719-2.719v-1.5h2.719v1.5c0 0.942 0.174 1.843 0.491 2.673-0.159 0.029-0.323 0.045-0.491 0.045zM22.219 7.5c0 1.499-1.22 2.719-2.719 2.719-0.168 0-0.332-0.016-0.491-0.045 0.317-0.831 0.491-1.732 0.491-2.673v-1.5h2.719v1.5z"></path>
    </symbol>
    <symbol id="gift" viewBox="0 0 24 24">
      <path d="M18.082 7.5c0.425-0.302 0.832-0.638 1.206-1.011 0.783-0.783 1.307-1.746 1.475-2.712 0.184-1.059-0.086-2.042-0.741-2.698-0.523-0.523-1.231-0.799-2.048-0.799-1.163 0-2.389 0.558-3.362 1.532-1.558 1.558-2.466 3.709-2.955 5.243-0.362-1.542-1.083-3.624-2.485-5.026-0.752-0.752-1.714-1.138-2.621-1.138-0.742 0-1.448 0.258-1.975 0.785-1.172 1.172-1.013 3.229 0.354 4.596 0.487 0.487 1.057 0.892 1.658 1.228h-5.087v6h1.5v10.5h18v-10.5h1.5v-6h-4.418zM15.805 3.005c0.65-0.65 1.461-1.038 2.169-1.038 0.251 0 0.603 0.053 0.854 0.305 0.61 0.61 0.267 2.023-0.733 3.023-1.030 1.030-2.415 1.738-3.619 2.205h-1.188c0.435-1.349 1.22-3.198 2.517-4.495zM5.483 3.771c-0.016-0.214-0.001-0.615 0.286-0.902 0.24-0.24 0.558-0.291 0.782-0.291v0c0.498 0 1.019 0.235 1.428 0.644 0.794 0.794 1.448 2.057 1.891 3.653 0.012 0.043 0.024 0.086 0.035 0.129-0.043-0.011-0.085-0.023-0.129-0.035-1.596-0.443-2.859-1.097-3.653-1.891-0.371-0.371-0.604-0.848-0.639-1.307zM10.5 22.5h-6v-9.75h6v9.75zM10.5 12h-7.5v-3h7.5v3zM19.5 22.5h-6v-9.75h6v9.75zM21 12h-7.5v-3h7.5v3z"></path>
    </symbol>
    <symbol id="fire" viewBox="0 0 24 24">
      <path d="M7.524 24c-1.6-3.328-0.748-5.235 0.482-7.032 1.346-1.968 1.693-3.916 1.693-3.916s1.058 1.376 0.635 3.528c1.87-2.081 2.222-5.397 1.94-6.667 4.226 2.953 6.032 9.348 3.598 14.087 12.946-7.325 3.22-18.285 1.527-19.52 0.564 1.235 0.671 3.325-0.469 4.339-1.93-7.319-6.702-8.819-6.702-8.819 0.564 3.774-2.046 7.902-4.563 10.986-0.088-1.505-0.182-2.544-0.974-3.984-0.178 2.734-2.267 4.963-2.833 7.702-0.766 3.71 0.574 6.426 5.666 9.296z"></path>
    </symbol>
    <symbol id="lab" viewBox="0 0 24 24">
      <path d="M22.413 18.855l-7.413-12.352v-5.003h0.75c0.413 0 0.75-0.337 0.75-0.75s-0.337-0.75-0.75-0.75h-7.5c-0.413 0-0.75 0.338-0.75 0.75s0.337 0.75 0.75 0.75h0.75v5.003l-7.413 12.352c-1.698 2.83-0.387 5.145 2.913 5.145h15c3.3 0 4.611-2.315 2.913-5.145zM5.649 15l4.851-8.084v-5.416h3v5.416l4.851 8.084h-12.701z"></path>
    </symbol>
    <symbol id="bin" viewBox="0 0 24 24">
      <path d="M4.5 24h15l1.5-16.5h-18zM15 3v-3h-6v3h-7.5v4.5l1.5-1.5h18l1.5 1.5v-4.5h-7.5zM13.5 3h-3v-1.5h3v1.5z"></path>
    </symbol>
    <symbol id="switch" viewBox="0 0 24 24">
      <path d="M15 3.436v3.187c0.849 0.37 1.629 0.9 2.303 1.575 1.417 1.417 2.197 3.3 2.197 5.303s-0.78 3.887-2.197 5.303c-1.417 1.417-3.3 2.197-5.303 2.197s-3.887-0.78-5.303-2.197c-1.417-1.417-2.197-3.3-2.197-5.303s0.78-3.887 2.197-5.303c0.674-0.674 1.455-1.204 2.303-1.575v-3.186c-4.337 1.291-7.5 5.308-7.5 10.064 0 5.799 4.701 10.5 10.5 10.5s10.5-4.701 10.5-10.5c0-4.756-3.163-8.773-7.5-10.064zM10.5 0h3v12h-3z"></path>
    </symbol>
    <symbol id="cloud" viewBox="0 0 24 24">
      <path d="M24 15.411c0-1.924-1.328-3.537-3.117-3.972-0.076-3.016-2.542-5.439-5.575-5.439-1.776 0-3.358 0.832-4.379 2.127-0.573-0.741-1.469-1.218-2.478-1.218-1.73 0-3.132 1.403-3.132 3.134 0 0.151 0.011 0.299 0.032 0.444-0.263-0.047-0.534-0.074-0.81-0.074-2.508-0-4.541 2.034-4.541 4.543s2.033 4.543 4.541 4.543l15.381-0c2.253-0.004 4.078-1.833 4.078-4.089z"></path>
    </symbol>
    <symbol id="bookmarks" viewBox="0 0 24 24">
      <path d="M6 3v21l7.5-7.5 7.5 7.5v-21zM18 0h-15v21l1.5-1.5v-18h13.5z"></path>
    </symbol>
    <symbol id="star-full" viewBox="0 0 24 24">
      <path d="M24 9.306l-8.292-1.205-3.708-7.514-3.708 7.514-8.292 1.205 6 5.849-1.416 8.258 7.416-3.899 7.416 3.899-1.416-8.258 6-5.849z"></path>
    </symbol>
    <symbol id="heart" viewBox="0 0 24 24">
      <path d="M17.7 1.5c-2.523 0-4.694 2.052-5.699 4.195-1.006-2.143-3.178-4.195-5.7-4.195-3.478 0-6.3 2.823-6.3 6.301 0 7.075 7.137 8.93 12.001 15.924 4.597-6.951 11.999-9.075 11.999-15.924 0-3.478-2.823-6.301-6.3-6.301z"></path>
    </symbol>
    <symbol id="volume-high" viewBox="0 0 26 24">
      <path d="M20.86 21.61c-0.288 0-0.576-0.11-0.796-0.329-0.439-0.439-0.439-1.152 0-1.591 2.054-2.054 3.185-4.785 3.185-7.69s-1.131-5.636-3.185-7.69c-0.439-0.439-0.439-1.152 0-1.591s1.152-0.439 1.591 0c2.479 2.479 3.844 5.775 3.844 9.281s-1.365 6.802-3.844 9.281c-0.22 0.22-0.508 0.329-0.795 0.329zM16.864 19.489c-0.288 0-0.576-0.11-0.796-0.329-0.439-0.439-0.439-1.152 0-1.591 3.070-3.070 3.070-8.066 0-11.137-0.439-0.439-0.439-1.152 0-1.591s1.152-0.439 1.591 0c1.912 1.912 2.966 4.455 2.966 7.159s-1.053 5.247-2.966 7.159c-0.22 0.22-0.508 0.33-0.795 0.33v0zM12.868 17.368c-0.288 0-0.576-0.11-0.796-0.329-0.439-0.439-0.439-1.152 0-1.591 1.901-1.901 1.901-4.994 0-6.894-0.439-0.439-0.439-1.152 0-1.591s1.152-0.439 1.591 0c2.778 2.778 2.778 7.298 0 10.076-0.22 0.22-0.508 0.329-0.795 0.329z"></path>
      <path d="M9.75 22.5c-0.195 0-0.387-0.076-0.53-0.22l-5.78-5.78h-2.689c-0.414 0-0.75-0.336-0.75-0.75v-7.5c0-0.414 0.336-0.75 0.75-0.75h2.689l5.78-5.78c0.215-0.215 0.537-0.279 0.817-0.163s0.463 0.39 0.463 0.693v19.5c0 0.303-0.183 0.577-0.463 0.693-0.093 0.038-0.19 0.057-0.287 0.057z"></path>
    </symbol>
    <symbol id="make-group" viewBox="0 0 24 24">
      <path d="M7.5 3h-3c-0.825 0-1.5 0.675-1.5 1.5v3c0 0.825 0.675 1.5 1.5 1.5h3c0.825 0 1.5-0.675 1.5-1.5v-3c0-0.825-0.675-1.5-1.5-1.5z"></path>
      <path d="M16.5 9h3c0.825 0 1.5-0.675 1.5-1.5v-3c0-0.825-0.675-1.5-1.5-1.5h-3c-0.825 0-1.5 0.675-1.5 1.5v3c0 0.825 0.675 1.5 1.5 1.5zM16.5 4.5h3v3h-3v-3z"></path>
      <path d="M7.5 15h-3c-0.825 0-1.5 0.675-1.5 1.5v3c0 0.825 0.675 1.5 1.5 1.5h3c0.825 0 1.5-0.675 1.5-1.5v-3c0-0.825-0.675-1.5-1.5-1.5zM7.5 19.5h-3v-3h3v3z"></path>
      <path d="M19.5 15h-3c-0.825 0-1.5 0.675-1.5 1.5v3c0 0.825 0.675 1.5 1.5 1.5h3c0.825 0 1.5-0.675 1.5-1.5v-3c0-0.825-0.675-1.5-1.5-1.5z"></path>
      <path d="M21 12h-1.5c-2.003 0-3.887-0.78-5.303-2.197s-2.197-3.3-2.197-5.303v-1.5c0-1.65-1.35-3-3-3h-6c-1.65 0-3 1.35-3 3v6c0 1.65 1.35 3 3 3h1.5c2.003 0 3.887 0.78 5.303 2.197s2.197 3.3 2.197 5.303v1.5c0 1.65 1.35 3 3 3h6c1.65 0 3-1.35 3-3v-6c0-1.65-1.35-3-3-3zM22.5 21c0 0.397-0.157 0.773-0.442 1.058s-0.661 0.442-1.058 0.442h-6c-0.397 0-0.773-0.157-1.058-0.442s-0.442-0.661-0.442-1.058v-1.5c0-4.971-4.029-9-9-9h-1.5c-0.397 0-0.773-0.157-1.058-0.442s-0.442-0.661-0.442-1.058v-6c0-0.397 0.157-0.773 0.442-1.058s0.661-0.442 1.058-0.442h6c0.397 0 0.773 0.157 1.058 0.442s0.442 0.661 0.442 1.058v1.5c0 4.971 4.029 9 9 9h1.5c0.397 0 0.773 0.157 1.058 0.442s0.442 0.661 0.442 1.058v6z"></path>
    </symbol>
    <symbol id="font-size" viewBox="0 0 24 24">
      <path d="M1.5 12h9v3h-3v9h-3v-9h-3zM22.5 6h-5.9v18h-3.199v-18h-5.9v-3h15z"></path>
    </symbol>
    <symbol id="share" viewBox="0 0 24 24">
      <path d="M20.25 16.5c-1.058 0-2.014 0.439-2.696 1.144l-10.102-5.051c0.031-0.193 0.047-0.392 0.047-0.594s-0.016-0.4-0.047-0.594l10.102-5.051c0.682 0.705 1.637 1.144 2.696 1.144 2.071 0 3.75-1.679 3.75-3.75s-1.679-3.75-3.75-3.75-3.75 1.679-3.75 3.75c0 0.202 0.017 0.4 0.047 0.594l-10.102 5.051c-0.682-0.705-1.637-1.144-2.696-1.144-2.071 0-3.75 1.679-3.75 3.75s1.679 3.75 3.75 3.75c1.058 0 2.014-0.439 2.696-1.144l10.102 5.051c-0.031 0.193-0.047 0.392-0.047 0.594 0 2.071 1.679 3.75 3.75 3.75s3.75-1.679 3.75-3.75c0-2.071-1.679-3.75-3.75-3.75z"></path>
    </symbol>
    <symbol id="rss" viewBox="0 0 24 24">
      <path d="M3.194 17.6c-1.762 0-3.194 1.438-3.194 3.189 0 1.761 1.432 3.183 3.194 3.183 1.769 0 3.199-1.421 3.199-3.183-0-1.752-1.43-3.189-3.199-3.189zM0.004 8.155v4.6c2.995 0 5.812 1.171 7.933 3.293 2.118 2.117 3.288 4.946 3.288 7.952h4.62c-0-8.738-7.108-15.845-15.841-15.845zM0.009 0v4.602c10.682 0 19.377 8.703 19.377 19.398h4.614c0-13.23-10.764-24-23.991-24z"></path>
    </symbol>
  </defs>
</svg>
